# xmcd
# 
# Track frame offsets:
#     150
#     8866
#     19018
#     28571
#     39565
#     51651
#     62261
#     73305
#     84557
#     96561
#     106029
#     116544
#     127800
#     139232
#     148253
#     162307
#     173395
#     183240
#     191472
#     202877
#     224702
# 
# Disc length: 4440
# 
# Revision: 4
# Processed by: cddbd v1.5.2PL0 Copyright (c) Steve Scherf et al.
# Submitted via: fre:ac v1.0.31
# 
DISCID=2a115615
DTITLE=Gerry and The Pacemakers - The Best Of Gerry and The Pacemakers [CD1]
DYEAR=2005
DGENRE=Pop
TTITLE0=How Do You Do It?
TTITLE1=I Like It
TTITLE2=Girl On A Swing
TTITLE3=Ferry Cross The Mersey
TTITLE4=Come Back To Me
TTITLE5=When Oh When
TTITLE6=Pretend
TTITLE7=Walk Hand In Hand
TTITLE8=Jambalaya
TTITLE9=Maybellene
TTITLE10=You're The Reason
TTITLE11=Slow Down
TTITLE12=Summertime
TTITLE13=Chills
TTITLE14=Whole Lotta Shakin' Going On
TTITLE15=Reelin' And Rockin'
TTITLE16=A Shot Of Rhythm And Blues
TTITLE17=Why Oh Why
TTITLE18=She's The Only Girl For Me
TTITLE19=I'm The One
TTITLE20=Data Track
EXTD=\n\n\n\n\n\n                                                www.gerryandthepacemakers.co.uk/
EXTT0=
EXTT1=
EXTT2=
EXTT3=
EXTT4=
EXTT5=
EXTT6=
EXTT7=
EXTT8=
EXTT9=
EXTT10=
EXTT11=
EXTT12=
EXTT13=
EXTT14=
EXTT15=
EXTT16=
EXTT17=
EXTT18=
EXTT19=
EXTT20=
PLAYORDER=
